<svg width="24" height="22" viewBox="0 0 24 22" fill="none" xmlns="http://www.w3.org/2000/svg">
<path fill-rule="evenodd" clip-rule="evenodd" d="M9.25236 0.371216H14.7473C16.011 0.38004 17.0154 1.04316 17.5889 2.17395L17.7146 2.42457L18.6057 4.2913L18.8623 4.29745C21.713 4.4466 23.9582 6.80511 23.9582 9.67069V16.596C23.9582 19.567 21.549 21.9767 18.5775 21.9767H5.42334C2.45092 21.9767 0.0415039 19.5673 0.0415039 16.596V9.67069C0.0415039 6.69862 2.45057 4.29002 5.34893 4.2924L5.3944 4.29014L6.04981 2.9099L6.41 2.17551C6.98647 1.04239 7.98921 0.380037 9.25236 0.371216ZM14.7392 2.70452L9.26865 2.70449C8.90604 2.70702 8.68236 2.85477 8.48987 3.23314L8.37342 3.46626L7.49289 5.31288C7.1585 6.01952 6.48705 6.50552 5.64075 6.61184L5.23048 6.62935C3.63621 6.72875 2.37484 8.05213 2.37484 9.67069V16.596C2.37484 18.2786 3.73959 19.6434 5.42334 19.6434H18.5775C20.2602 19.6434 21.6248 18.2785 21.6248 16.596V9.67069C21.6248 8.04796 20.3531 6.71198 18.7709 6.6288L18.389 6.61562C17.5788 6.54894 16.8594 6.05561 16.5075 5.31187L15.8514 3.92832L15.5093 3.23222C15.318 2.85495 15.0939 2.70703 14.7392 2.70452ZM7.12508 12.7282C7.10342 10.0535 9.31018 7.83666 12.0054 7.83972L12.2484 7.84599C14.8252 7.9762 16.8793 10.1181 16.8749 12.7289C16.8703 15.4121 14.6845 17.5993 12.0024 17.6024C9.31546 17.6039 7.1235 15.4077 7.12508 12.7282ZM14.5415 12.7249C14.5439 11.321 13.4023 10.1747 12.0027 10.1731L11.8216 10.1794C10.505 10.2729 9.44767 11.3932 9.45837 12.7194C9.45757 14.1203 10.6049 15.2699 12.0004 15.2691C13.3951 15.2675 14.5391 14.1227 14.5415 12.7249ZM17.3709 9.89824C17.4956 9.94843 17.6069 9.97784 17.7197 9.98941L17.8334 9.99514L17.9491 9.98941C18.2171 9.96282 18.4683 9.84441 18.6596 9.65187C18.8809 9.4168 19.0001 9.13439 19.0001 8.82904C19.0001 8.67006 18.9676 8.51249 18.9031 8.36757L18.8766 8.2994C18.8318 8.20326 18.751 8.08926 18.6551 7.99478C18.3352 7.67498 17.8233 7.57309 17.3929 7.74362C17.2478 7.80756 17.1416 7.88019 17.0379 7.97045C16.9017 8.10314 16.8263 8.22513 16.7627 8.36975C16.6992 8.51249 16.6667 8.67006 16.6667 8.82904C16.6667 9.12833 16.7875 9.41845 16.9961 9.64031C17.1122 9.75824 17.2322 9.83662 17.3709 9.89824Z" fill="#447BFB"/>
</svg>
