<svg width="32" height="32" viewBox="0 0 32 32" fill="none" xmlns="http://www.w3.org/2000/svg">
<path fill-rule="evenodd" clip-rule="evenodd" d="M16 0C28.196 0 32 4.3877 32 16C32 27.6123 28.196 32 16 32C3.80401 32 0 27.6123 0 16C0 4.3877 3.80401 0 16 0Z" fill="#F5F7FC"/>
<path fill-rule="evenodd" clip-rule="evenodd" d="M16 2C26.6715 2 30 5.83924 30 16C30 26.1608 26.6715 30 16 30C5.32851 30 2 26.1608 2 16C2 5.83924 5.32851 2 16 2Z" fill="#959FBA"/>
<path d="M12.236 16.184H15.344V17.332H12.236V20.44H11.088V17.332H7.98V16.184H11.088V13.076H12.236V16.184ZM23.6322 21H17.1642V19.698L21.1122 15.778C21.4109 15.47 21.6676 15.148 21.8822 14.812C22.0969 14.476 22.2042 14.098 22.2042 13.678C22.2042 13.4167 22.1576 13.1833 22.0642 12.978C21.9709 12.7633 21.8449 12.5813 21.6862 12.432C21.5276 12.2827 21.3409 12.1707 21.1262 12.096C20.9116 12.012 20.6829 11.97 20.4402 11.97C19.9362 11.97 19.5209 12.1333 19.1942 12.46C18.8676 12.7773 18.6622 13.188 18.5782 13.692L17.2482 13.468C17.3042 13.0947 17.4209 12.7493 17.5982 12.432C17.7849 12.1053 18.0182 11.8253 18.2982 11.592C18.5782 11.3493 18.9002 11.1627 19.2642 11.032C19.6376 10.9013 20.0342 10.836 20.4542 10.836C20.8649 10.836 21.2569 10.8967 21.6302 11.018C22.0129 11.1393 22.3489 11.3167 22.6382 11.55C22.9276 11.7833 23.1562 12.0773 23.3242 12.432C23.5016 12.7867 23.5902 13.1927 23.5902 13.65C23.5902 13.9673 23.5482 14.2613 23.4642 14.532C23.3802 14.8027 23.2636 15.0593 23.1142 15.302C22.9742 15.5447 22.8062 15.778 22.6102 16.002C22.4142 16.2167 22.2089 16.4313 21.9942 16.646L18.7742 19.782H23.6322V21Z" fill="white"/>
</svg>
