<svg width="32" height="32" viewBox="0 0 32 32" fill="none" xmlns="http://www.w3.org/2000/svg">
<path fill-rule="evenodd" clip-rule="evenodd" d="M16 0C28.196 0 32 4.3877 32 16C32 27.6123 28.196 32 16 32C3.80401 32 0 27.6123 0 16C0 4.3877 3.80401 0 16 0Z" fill="#F5F7FC"/>
<path fill-rule="evenodd" clip-rule="evenodd" d="M16 2C26.6715 2 30 5.83924 30 16C30 26.1608 26.6715 30 16 30C5.32851 30 2 26.1608 2 16C2 5.83924 5.32851 2 16 2Z" fill="#959FBA"/>
<path d="M12.236 16.184H15.344V17.332H12.236V20.44H11.088V17.332H7.98V16.184H11.088V13.076H12.236V16.184ZM19.3062 15.26H19.7402C20.0202 15.26 20.2909 15.2367 20.5522 15.19C20.8229 15.134 21.0609 15.0453 21.2662 14.924C21.4716 14.7933 21.6349 14.6207 21.7562 14.406C21.8869 14.1913 21.9522 13.9253 21.9522 13.608C21.9522 13.356 21.9056 13.132 21.8122 12.936C21.7189 12.7307 21.5882 12.558 21.4202 12.418C21.2616 12.278 21.0749 12.1707 20.8602 12.096C20.6549 12.012 20.4356 11.97 20.2022 11.97C19.7822 11.97 19.4229 12.0773 19.1242 12.292C18.8349 12.5067 18.6156 12.8053 18.4662 13.188L17.2342 12.754C17.4769 12.1567 17.8642 11.69 18.3962 11.354C18.9376 11.0087 19.5582 10.836 20.2582 10.836C20.6689 10.836 21.0562 10.8967 21.4202 11.018C21.7936 11.13 22.1202 11.298 22.4002 11.522C22.6802 11.746 22.8996 12.026 23.0582 12.362C23.2262 12.698 23.3102 13.0853 23.3102 13.524C23.3102 13.804 23.2636 14.0653 23.1702 14.308C23.0862 14.5507 22.9649 14.77 22.8062 14.966C22.6569 15.162 22.4749 15.33 22.2602 15.47C22.0456 15.61 21.8122 15.7127 21.5602 15.778V15.806C21.8496 15.862 22.1156 15.96 22.3582 16.1C22.6102 16.24 22.8249 16.4173 23.0022 16.632C23.1796 16.8373 23.3196 17.0753 23.4222 17.346C23.5249 17.6167 23.5762 17.9107 23.5762 18.228C23.5762 18.7227 23.4829 19.1613 23.2962 19.544C23.1096 19.9173 22.8622 20.23 22.5542 20.482C22.2462 20.734 21.8916 20.9253 21.4902 21.056C21.0889 21.1867 20.6782 21.252 20.2582 21.252C19.4742 21.252 18.7836 21.0747 18.1862 20.72C17.5889 20.3653 17.1549 19.8147 16.8842 19.068L18.1442 18.648C18.2936 19.0773 18.5456 19.4273 18.9002 19.698C19.2642 19.9687 19.7076 20.104 20.2302 20.104C20.4822 20.104 20.7249 20.0667 20.9582 19.992C21.2009 19.908 21.4156 19.7867 21.6022 19.628C21.7889 19.4693 21.9382 19.2733 22.0502 19.04C22.1622 18.8067 22.2182 18.5313 22.2182 18.214C22.2182 17.8687 22.1436 17.5793 21.9942 17.346C21.8449 17.1127 21.6489 16.926 21.4062 16.786C21.1729 16.6367 20.9069 16.534 20.6082 16.478C20.3096 16.4127 20.0156 16.38 19.7262 16.38H19.3062V15.26Z" fill="white"/>
</svg>
