<svg width="25" height="19" viewBox="0 0 25 19" fill="none" xmlns="http://www.w3.org/2000/svg">
<path fill-rule="evenodd" clip-rule="evenodd" d="M14.0503 0.550302C14.636 -0.0354847 15.5858 -0.0354847 16.1716 0.550302L23.9497 8.32848C24.2709 8.6496 24.416 9.08009 24.385 9.50005C24.416 9.92 24.2709 10.3505 23.9497 10.6716L16.1716 18.4498C15.5858 19.0356 14.636 19.0356 14.0503 18.4498C13.4645 17.864 13.4645 16.9143 14.0503 16.3285L19.3787 11H1.5C0.671573 11 0 10.3285 0 9.50005C0 8.67162 0.671573 8.00005 1.5 8.00005H19.3787L14.0503 2.67162C13.4645 2.08584 13.4645 1.13609 14.0503 0.550302Z" fill="white"/>
</svg>
