<svg width="12" height="12" viewBox="0 0 12 12" fill="none" xmlns="http://www.w3.org/2000/svg">
<path fill-rule="evenodd" clip-rule="evenodd" d="M10.8492 0.955851C10.4586 0.565327 9.82547 0.565327 9.43495 0.955851L5.89941 4.49138L2.36388 0.955851C1.97336 0.565327 1.34019 0.565327 0.949667 0.955851C0.559142 1.34638 0.559143 1.97954 0.949667 2.37006L4.4852 5.9056L0.949667 9.44113C0.559143 9.83166 0.559142 10.4648 0.949667 10.8553C1.34019 11.2459 1.97336 11.2459 2.36388 10.8553L5.89941 7.31981L9.43495 10.8553C9.82547 11.2459 10.4586 11.2459 10.8492 10.8553C11.2397 10.4648 11.2397 9.83166 10.8492 9.44113L7.31363 5.9056L10.8492 2.37006C11.2397 1.97954 11.2397 1.34638 10.8492 0.955851Z" fill="#447BFB"/>
</svg>
