<svg width="24" height="24" viewBox="0 0 24 24" fill="none" xmlns="http://www.w3.org/2000/svg">
<path fill-rule="evenodd" clip-rule="evenodd" d="M10.5172 6.31715L12.0683 4.33828C13.1431 2.96897 14.9459 2.92278 16.34 4.01574L17.73 5.10574C19.1245 6.19912 19.5103 7.95894 18.436 9.3306L16.8837 11.311L10.1475 19.9049C9.68329 20.4982 8.97459 20.8483 8.22277 20.8566L5.02577 20.8976C4.55594 20.9036 4.14528 20.5818 4.03891 20.1241L3.31512 17.01C3.14434 16.2783 3.31473 15.5087 3.77891 14.9138L10.514 6.32124C10.5145 6.32055 10.5151 6.31986 10.5156 6.31916C10.5162 6.31849 10.5167 6.31782 10.5172 6.31715ZM11.4728 8.34007L5.35434 16.1459C5.26294 16.263 5.22964 16.4134 5.26298 16.5563L5.80405 18.887L8.19884 18.8568C8.31592 18.8555 8.42724 18.8118 8.51335 18.7352L8.57291 18.6718L14.6927 10.8642L11.4728 8.34007ZM15.9265 9.29013L12.7066 6.766L13.642 5.5726C13.9772 5.14557 14.5217 5.13162 15.1059 5.58966L16.4959 6.67961C17.0809 7.13832 17.1972 7.66869 16.8617 8.0971L15.9265 9.29013ZM20.0766 18.8981C20.6289 18.8981 21.0766 19.3458 21.0766 19.8981C21.0766 20.4109 20.6906 20.8336 20.1933 20.8914L20.0766 20.8981H13.6996C13.1474 20.8981 12.6996 20.4504 12.6996 19.8981C12.6996 19.3853 13.0857 18.9626 13.583 18.9048L13.6996 18.8981H20.0766Z" fill="#244CAA"/>
</svg>
