<svg width="28" height="28" viewBox="0 0 28 28" fill="none" xmlns="http://www.w3.org/2000/svg">
<path fill-rule="evenodd" clip-rule="evenodd" d="M7.99941 27.8462H19.9994C24.6936 27.8462 27.8462 24.5534 27.8462 19.6538V8.34625C27.8462 3.44664 24.6936 0.15387 20.0008 0.15387H7.99941C3.30656 0.15387 0.153931 3.44664 0.153931 8.34625V19.6538C0.153931 24.5534 3.30656 27.8462 7.99941 27.8462ZM9.15235 12.6154C7.24345 12.6154 5.69239 11.0622 5.69239 9.15387C5.69239 7.2455 7.24345 5.69233 9.15235 5.69233C11.0599 5.69233 12.6123 7.2455 12.6123 9.15387C12.6123 11.0622 11.0599 12.6154 9.15235 12.6154ZM24.8289 18.0624C25.2925 19.2513 25.0517 20.6802 24.556 21.8576C23.9684 23.2579 22.8434 24.3182 21.426 24.7811C20.7967 24.9869 20.1367 25.0769 19.4782 25.0769H7.80898C6.64777 25.0769 5.62022 24.7983 4.77786 24.2796C4.25016 23.9538 4.15688 23.2022 4.54812 22.7149C5.20252 21.9005 5.84857 21.0831 6.50018 20.2586C7.74214 18.6811 8.57894 18.2239 9.50902 18.6254C9.88634 18.7912 10.2651 19.0398 10.6549 19.3027C11.6936 20.0086 13.1374 20.9788 15.0394 19.9257C16.3409 19.1967 17.0958 17.9463 17.7532 16.8575L17.7642 16.8393C17.8108 16.7629 17.8569 16.6865 17.903 16.6103C18.1239 16.2447 18.3419 15.8841 18.5884 15.5518C18.8975 15.136 20.0434 13.8357 21.5277 14.7616C22.4731 15.3446 23.2681 16.1334 24.1188 16.9779C24.4432 17.3008 24.6744 17.668 24.8289 18.0624Z" fill="#FFC107"/>
</svg>
