<svg width="26" height="28" viewBox="0 0 26 28" fill="none" xmlns="http://www.w3.org/2000/svg">
<path fill-rule="evenodd" clip-rule="evenodd" d="M0.538452 6.84156C0.538452 2.61848 2.98922 0.15387 7.19845 0.15387H18.8029C23.08 0.15387 25.4615 2.61848 25.4615 6.84156V21.1446C25.4615 25.4369 23.08 27.8462 18.8029 27.8462H7.19845C2.98922 27.8462 0.538452 25.4369 0.538452 21.1446V6.84156ZM8.16275 8.01944L8.16245 8.01751C8.06931 7.42945 8.45025 6.87706 9.01459 6.78768L18.836 5.16178C19.3991 5.07261 19.9334 5.48004 20.0265 6.06809C20.051 6.22284 20.0426 6.37503 20.0066 6.51693C20.0072 6.53167 20.0075 6.54649 20.0075 6.56138V19.3716C20.0075 19.5323 19.9721 19.685 19.9087 19.8222C19.7666 21.2183 18.5875 22.3077 17.1538 22.3077C15.6244 22.3077 14.3846 21.0679 14.3846 19.5385C14.3846 18.0091 15.6244 16.7693 17.1538 16.7693C17.3929 16.7693 17.6249 16.7995 17.8461 16.8565V12.8552L10.3152 14.1151V20.7563C10.3152 20.917 10.2798 21.0696 10.2164 21.2068C10.0743 22.6029 8.89515 23.6923 7.46153 23.6923C5.93212 23.6923 4.6923 22.4525 4.6923 20.9231C4.6923 19.3937 5.93212 18.1539 7.46153 18.1539C7.70058 18.1539 7.93256 18.1842 8.15384 18.2411V8.15879C8.15384 8.11156 8.15687 8.06505 8.16275 8.01944ZM17.8461 7.5164V10.6639L10.3152 11.9238V8.76311L17.8461 7.5164Z" fill="#2196F3"/>
</svg>
