<svg width="261" height="250" viewBox="0 0 261 250" fill="none" xmlns="http://www.w3.org/2000/svg">
<path fill-rule="evenodd" clip-rule="evenodd" d="M35.2017 171.953L139.5 131.5L145.803 241L100 235.912L55.6235 203.247L35.2017 171.953Z" fill="#E8F9FB"/>
<path fill-rule="evenodd" clip-rule="evenodd" d="M36.3653 81.3761L139.5 131.5L31.6306 155.854L27.7329 119.15L36.3653 81.3761Z" fill="#FAE2FF"/>
<path fill-rule="evenodd" clip-rule="evenodd" d="M153.823 15.4928L139.5 131.5L44.97 66.428L89.3235 25.4393L153.823 15.4928Z" fill="#EBF6FE"/>
<path fill-rule="evenodd" clip-rule="evenodd" d="M171.964 17.0139L139.5 129.975L220.812 45.9851L171.964 17.0139Z" fill="#FFF5D7"/>
<path fill-rule="evenodd" clip-rule="evenodd" d="M235.5 192.558L139.5 131.5L231.312 60.4703L246 94.4098L254.723 138.318L235.5 192.558Z" fill="#E8F7EB"/>
<path fill-rule="evenodd" clip-rule="evenodd" d="M162.937 241L139.5 131.5L224.755 204.668L198.5 226.908L162.937 241Z" fill="#F1EDEB"/>
<path d="M169.074 243.523C166.426 244.183 163.745 242.571 163.085 239.924C162.426 237.276 164.037 234.595 166.685 233.935C186.117 229.093 203.764 218.942 217.768 204.721C219.682 202.777 222.811 202.753 224.755 204.667C226.699 206.582 226.723 209.71 224.809 211.655C209.536 227.163 190.283 238.239 169.074 243.523Z" fill="#8D6E63"/>
<path fill-rule="evenodd" clip-rule="evenodd" d="M248.568 124.432C247.845 103.732 241.358 84.1022 229.994 67.3319C228.463 65.073 229.053 62.001 231.312 60.4703C233.571 58.9396 236.643 59.5299 238.174 61.7888C250.573 80.0868 257.655 101.516 258.443 124.087C259.265 147.614 253.177 170.371 241.152 190.026C239.728 192.353 236.687 193.086 234.359 191.662C232.031 190.238 231.299 187.196 232.723 184.869C243.745 166.854 249.321 146.008 248.568 124.432Z" fill="#4AC367"/>
<path d="M220.108 40.0219C222.135 41.8494 222.296 44.9735 220.468 46.9998C218.641 49.0261 215.516 49.1872 213.49 47.3597C202.219 37.1936 188.939 29.4679 174.512 24.7384C171.919 23.8885 170.506 21.0974 171.356 18.5045C172.206 15.9116 174.997 14.4987 177.59 15.3487C193.332 20.5093 207.817 28.9359 220.108 40.0219Z" fill="#FFC107"/>
<path d="M149.271 10.191C151.992 10.3983 154.03 12.772 153.822 15.4928C153.615 18.2136 151.241 20.2512 148.521 20.0438C133.888 18.9289 119.119 20.7986 104.928 25.6848C83.2399 33.1527 64.892 46.9967 51.8611 65.2734C50.277 67.4951 47.1917 68.0121 44.97 66.428C42.7482 64.8439 42.2312 61.7586 43.8153 59.5369C58.0313 39.598 78.0608 24.4852 101.711 16.3417C117.182 11.0148 133.301 8.97417 149.271 10.191Z" fill="#2196F3"/>
<path d="M29.9334 84.1059C30.9557 81.576 33.8354 80.3538 36.3653 81.3761C38.8952 82.3984 40.1174 85.2781 39.0951 87.808C30.9246 108.028 29.1109 129.921 33.5797 150.947C34.147 153.616 32.4432 156.24 29.7741 156.807C27.1051 157.375 24.4815 155.671 23.9142 153.002C19.0392 130.065 21.019 106.166 29.9334 84.1059Z" fill="#DA5DF5"/>
<path d="M32.8138 178.519C31.6599 176.047 32.7289 173.107 35.2015 171.953C37.6742 170.799 40.6142 171.868 41.7681 174.34C56.6727 206.277 86.0777 229.267 121.441 235.503C128.167 236.689 134.92 237.241 141.64 237.167C144.369 237.137 146.605 239.324 146.635 242.053C146.665 244.781 144.477 247.017 141.749 247.047C134.418 247.128 127.054 246.526 119.725 245.234C81.1538 238.433 49.0672 213.346 32.8138 178.519Z" fill="#00BCD4"/>
<circle cx="141" cy="129" r="65" fill="white"/>
<path d="M112.203 121.84L108.583 127.08L108.603 127.1C108.789 127.02 109.023 126.96 109.303 126.92C109.596 126.88 109.863 126.86 110.103 126.86C110.729 126.86 111.316 126.98 111.863 127.22C112.409 127.447 112.889 127.767 113.303 128.18C113.716 128.58 114.036 129.06 114.263 129.62C114.503 130.167 114.623 130.76 114.623 131.4C114.623 132.147 114.489 132.827 114.223 133.44C113.956 134.053 113.589 134.58 113.123 135.02C112.669 135.447 112.123 135.773 111.483 136C110.856 136.24 110.183 136.36 109.463 136.36C108.716 136.36 108.029 136.24 107.403 136C106.776 135.747 106.229 135.4 105.763 134.96C105.296 134.52 104.929 134.007 104.663 133.42C104.409 132.82 104.283 132.18 104.283 131.5C104.283 131.1 104.316 130.727 104.383 130.38C104.449 130.02 104.543 129.68 104.663 129.36C104.796 129.027 104.949 128.693 105.123 128.36C105.309 128.027 105.516 127.68 105.743 127.32L109.283 121.84H112.203ZM106.723 131.56C106.723 131.933 106.783 132.287 106.903 132.62C107.036 132.953 107.223 133.247 107.463 133.5C107.703 133.753 107.989 133.953 108.323 134.1C108.656 134.247 109.029 134.32 109.443 134.32C110.256 134.32 110.909 134.067 111.403 133.56C111.909 133.04 112.163 132.36 112.163 131.52C112.163 131.12 112.096 130.753 111.963 130.42C111.843 130.073 111.663 129.78 111.423 129.54C111.183 129.3 110.896 129.113 110.563 128.98C110.243 128.833 109.883 128.76 109.483 128.76C109.083 128.76 108.709 128.827 108.363 128.96C108.029 129.093 107.736 129.287 107.483 129.54C107.243 129.78 107.056 130.073 106.923 130.42C106.789 130.767 106.723 131.147 106.723 131.56ZM116.61 121.84H126.23V124.04L120.57 136H117.75L123.71 124H116.61V121.84ZM128.797 134.6C128.797 134.173 128.95 133.807 129.257 133.5C129.577 133.193 129.957 133.04 130.397 133.04C130.824 133.04 131.197 133.187 131.517 133.48C131.837 133.773 131.997 134.133 131.997 134.56C131.997 134.987 131.837 135.353 131.517 135.66C131.21 135.967 130.837 136.12 130.397 136.12C130.184 136.12 129.977 136.08 129.777 136C129.59 135.92 129.424 135.813 129.277 135.68C129.13 135.547 129.01 135.387 128.917 135.2C128.837 135.013 128.797 134.813 128.797 134.6ZM143.092 124H137.312L137.172 127.06C137.399 126.993 137.666 126.947 137.972 126.92C138.292 126.893 138.579 126.88 138.832 126.88C139.526 126.88 140.166 126.98 140.752 127.18C141.352 127.38 141.872 127.673 142.312 128.06C142.752 128.433 143.092 128.9 143.332 129.46C143.586 130.007 143.712 130.64 143.712 131.36C143.712 132.147 143.572 132.853 143.292 133.48C143.026 134.093 142.659 134.613 142.192 135.04C141.726 135.467 141.179 135.793 140.552 136.02C139.926 136.247 139.259 136.36 138.552 136.36C137.366 136.36 136.366 136.087 135.552 135.54C134.739 134.98 134.146 134.22 133.772 133.26L135.952 132.46C136.152 133.02 136.486 133.473 136.952 133.82C137.419 134.153 137.972 134.32 138.612 134.32C138.972 134.32 139.312 134.26 139.632 134.14C139.952 134.02 140.232 133.847 140.472 133.62C140.712 133.393 140.899 133.113 141.032 132.78C141.179 132.433 141.252 132.047 141.252 131.62C141.252 131.073 141.159 130.62 140.972 130.26C140.786 129.9 140.539 129.613 140.232 129.4C139.939 129.173 139.606 129.02 139.232 128.94C138.859 128.847 138.479 128.8 138.092 128.8C137.826 128.8 137.539 128.82 137.232 128.86C136.939 128.9 136.646 128.96 136.352 129.04C136.072 129.107 135.792 129.187 135.512 129.28C135.246 129.373 135.006 129.473 134.792 129.58L135.032 121.84H143.092V124ZM164.159 135.26C163.439 135.607 162.646 135.873 161.779 136.06C160.926 136.26 159.939 136.36 158.819 136.36C157.673 136.36 156.626 136.18 155.679 135.82C154.733 135.447 153.919 134.933 153.239 134.28C152.559 133.613 152.026 132.827 151.639 131.92C151.266 131 151.079 129.987 151.079 128.88C151.079 127.747 151.273 126.727 151.659 125.82C152.059 124.9 152.599 124.12 153.279 123.48C153.973 122.84 154.786 122.347 155.719 122C156.653 121.653 157.666 121.48 158.759 121.48C159.893 121.48 160.926 121.647 161.859 121.98C162.806 122.3 163.566 122.727 164.139 123.26L162.399 125.14C162.039 124.74 161.533 124.4 160.879 124.12C160.239 123.84 159.539 123.7 158.779 123.7C158.033 123.7 157.353 123.833 156.739 124.1C156.139 124.367 155.626 124.733 155.199 125.2C154.773 125.667 154.439 126.213 154.199 126.84C153.973 127.467 153.859 128.147 153.859 128.88C153.859 129.64 153.973 130.34 154.199 130.98C154.439 131.607 154.773 132.153 155.199 132.62C155.639 133.087 156.166 133.453 156.779 133.72C157.406 133.973 158.113 134.1 158.899 134.1C159.979 134.1 160.919 133.933 161.719 133.6V130H158.739V127.92H164.159V135.26ZM167.228 121.84H172.748C173.281 121.84 173.808 121.907 174.328 122.04C174.848 122.16 175.308 122.367 175.708 122.66C176.121 122.94 176.455 123.307 176.708 123.76C176.961 124.213 177.088 124.76 177.088 125.4C177.088 126.2 176.861 126.86 176.408 127.38C175.955 127.9 175.361 128.273 174.628 128.5V128.54C175.521 128.66 176.255 129.007 176.828 129.58C177.401 130.153 177.688 130.92 177.688 131.88C177.688 132.653 177.535 133.307 177.228 133.84C176.921 134.36 176.515 134.78 176.008 135.1C175.515 135.42 174.941 135.653 174.288 135.8C173.648 135.933 172.995 136 172.328 136H167.228V121.84ZM169.748 127.6H171.988C172.828 127.6 173.468 127.433 173.908 127.1C174.348 126.767 174.568 126.293 174.568 125.68C174.568 125.04 174.341 124.587 173.888 124.32C173.435 124.053 172.728 123.92 171.768 123.92H169.748V127.6ZM169.748 133.88H172.008C172.328 133.88 172.675 133.86 173.048 133.82C173.421 133.767 173.761 133.667 174.068 133.52C174.388 133.373 174.648 133.16 174.848 132.88C175.061 132.6 175.168 132.227 175.168 131.76C175.168 131.013 174.915 130.493 174.408 130.2C173.901 129.907 173.135 129.76 172.108 129.76H169.748V133.88Z" fill="#244CAA"/>
</svg>
