<svg width="28" height="28" viewBox="0 0 28 28" fill="none" xmlns="http://www.w3.org/2000/svg">
<path fill-rule="evenodd" clip-rule="evenodd" d="M0.153931 14.008C0.153931 6.3656 6.36866 0.15387 14.0001 0.15387C21.6315 0.15387 27.8462 6.3656 27.8462 14.008C27.8462 21.6344 21.6315 27.8462 14.0001 27.8462C6.36866 27.8462 0.153931 21.6344 0.153931 14.008ZM19.0788 15.4094C19.2258 15.2624 19.4129 15.0353 19.453 14.9819C19.6668 14.7013 19.7738 14.354 19.7738 14.008C19.7738 13.6193 19.6535 13.2586 19.4263 12.9647C19.4077 12.9461 19.3712 12.9064 19.3237 12.8547C19.2348 12.7579 19.1072 12.6191 18.9852 12.4972C17.8893 11.3216 15.0292 9.398 13.5323 8.81022C13.3051 8.71804 12.7304 8.51633 12.423 8.50297C12.129 8.50297 11.8483 8.56976 11.581 8.70335C11.2469 8.89037 10.9796 9.18426 10.8326 9.53158C10.739 9.77204 10.592 10.4934 10.592 10.5068C10.445 11.2949 10.3648 12.5773 10.3648 13.9933C10.3648 15.3439 10.445 16.5715 10.5653 17.3731C10.5686 17.3764 10.5801 17.4337 10.5979 17.5228C10.6522 17.7935 10.7654 18.3575 10.886 18.5887C11.1801 19.1497 11.7548 19.4971 12.3695 19.4971H12.423C12.824 19.4837 13.666 19.1364 13.666 19.123C15.0826 18.5353 17.8759 16.7051 18.9986 15.4895L19.0788 15.4094Z" fill="#00BCD4"/>
</svg>
