<svg width="24" height="24" viewBox="0 0 24 24" fill="none" xmlns="http://www.w3.org/2000/svg">
<path fill-rule="evenodd" clip-rule="evenodd" d="M10.5 3C14.6421 3 18 6.35786 18 10.5C18 12.4657 17.2438 14.2548 16.0064 15.5922L19.8284 19.4142C20.219 19.8047 20.219 20.4379 19.8284 20.8284C19.4379 21.219 18.8047 21.219 18.4142 20.8284L14.4577 16.8719C13.309 17.587 11.9527 18 10.5 18C6.35786 18 3 14.6421 3 10.5C3 6.35786 6.35786 3 10.5 3ZM10.5 5C7.46243 5 5 7.46243 5 10.5C5 13.5376 7.46243 16 10.5 16C13.5376 16 16 13.5376 16 10.5C16 7.46243 13.5376 5 10.5 5Z" fill="#959FBA"/>
</svg>
