<svg width="25" height="25" viewBox="0 0 25 25" fill="none" xmlns="http://www.w3.org/2000/svg">
<path fill-rule="evenodd" clip-rule="evenodd" d="M0.480225 13.5732C0.480225 10.6385 2.79348 8.24375 5.69588 8.11297L5.94606 8.10734H7.03456C7.67889 8.10734 8.20123 8.62968 8.20123 9.27401C8.20123 9.87232 7.75084 10.3654 7.17062 10.4328L7.03456 10.4407H5.94606C4.28276 10.4407 2.92194 11.7375 2.81972 13.3751L2.81356 13.5732L2.81356 19.2607C2.81356 20.923 4.11052 22.2836 5.74799 22.3858L5.94606 22.392H18.9311C20.5942 22.392 21.9552 21.0953 22.0574 19.4586L22.0636 19.2607V13.5615C22.0636 11.9046 20.7718 10.5487 19.1411 10.4468L18.9439 10.4407H17.8437C17.1994 10.4407 16.6771 9.91834 16.6771 9.27401C16.6771 8.6757 17.1274 8.18258 17.7077 8.11519L17.8437 8.10734H18.9439C21.8716 8.10734 24.2608 10.4161 24.3913 13.3119L24.3969 13.5615V19.2607C24.3969 22.1944 22.0834 24.589 19.1812 24.7197L18.9311 24.7253H5.94606C3.01163 24.7253 0.616641 22.4123 0.48585 19.5108L0.480225 19.2607L0.480225 13.5732ZM11.5979 0.539209C11.8101 0.318754 12.1083 0.181591 12.4384 0.181591C12.7715 0.181591 13.0719 0.321142 13.2845 0.54496L16.667 3.94135C17.1217 4.39789 17.1201 5.13658 16.6636 5.59126C16.2422 6.01096 15.5803 6.04195 15.1234 5.68515L15.0137 5.58787L13.6051 4.17438L13.6051 15.3961C13.6051 16.0404 13.0828 16.5628 12.4384 16.5628C11.8401 16.5628 11.347 16.1124 11.2796 15.5321L11.2718 15.3961L11.2718 4.1743L9.86428 5.58773C9.44465 6.00923 8.78296 6.04305 8.32449 5.68821L8.21437 5.5914C7.79287 5.17177 7.75905 4.51007 8.11389 4.05161L8.2107 3.94149L11.5979 0.539209Z" fill="#447BFB"/>
</svg>
